name Walk1.mot
datacolumns 19
datarows 12
range 2.22500000 2.28000000
endheader

                time	   L_ground_force_vx	   L_ground_force_vy	   L_ground_force_vz	   L_ground_force_px	   L_ground_force_py	   L_ground_force_pz	   R_ground_force_vx	   R_ground_force_vy	   R_ground_force_vz	   R_ground_force_px	   R_ground_force_py	   R_ground_force_pz	   L_ground_torque_x	   L_ground_torque_y	   L_ground_torque_z	   R_ground_torque_x	   R_ground_torque_y	   R_ground_torque_z	
          2.22500000	          0.00662565	          0.02667056	          0.00113167	         -0.00012778	          0.00000000	         -0.00002626	        -14.95571948	        937.18968760	        -49.15341724	          0.32656078	          0.00000000	          0.13694550	          0.00000000	          0.00009244	          0.00000000	          0.00000000	          4.97399567	          0.00000000	
          2.23000000	          0.00231381	          0.01198635	          0.00064075	         -0.00009564	          0.00000000	         -0.00002123	        -14.27535288	        930.93800433	        -48.77278255	          0.32877653	          0.00000000	          0.13745404	          0.00000000	          0.00008312	          0.00000000	          0.00000000	          4.80315992	          0.00000000	
          2.23500000	         -0.00063428	          0.00162167	          0.00027526	         -0.00006747	          0.00000000	         -0.00001632	        -13.56609358	        925.09457251	        -48.66004681	          0.33097744	          0.00000000	          0.13797379	          0.00000000	          0.00007057	          0.00000000	          0.00000000	          4.66303927	          0.00000000	
          2.24000000	         -0.00247467	         -0.00515325	          0.00001911	         -0.00004407	          0.00000000	         -0.00001189	        -12.79896832	        919.73032885	        -48.76562287	          0.33313457	          0.00000000	          0.13849594	          0.00000000	          0.00005695	          0.00000000	          0.00000000	          4.54829825	          0.00000000	
          2.24500000	         -0.00345916	         -0.00909032	         -0.00014667	         -0.00002557	          0.00000000	         -0.00000810	        -11.95193446	        914.93269646	        -49.03094796	          0.33522302	          0.00000000	          0.13901189	          0.00000000	          0.00004370	          0.00000000	          0.00000000	          4.45379267	          0.00000000	
          2.25000000	         -0.00381692	         -0.01089615	         -0.00024138	         -0.00001169	          0.00000000	         -0.00000503	        -11.01017353	        910.79815645	        -49.39626502	          0.33722302	          0.00000000	          0.13951329	          0.00000000	          0.00003175	          0.00000000	          0.00000000	          4.37433156	          0.00000000	
          2.25500000	         -0.00374447	         -0.01119244	         -0.00028302	         -0.00000186	          0.00000000	         -0.00000267	         -9.96575057	        907.42440743	        -49.80501517	          0.33911997	          0.00000000	          0.13999292	          0.00000000	          0.00002158	          0.00000000	          0.00000000	          4.30459269	          0.00000000	
          2.26000000	         -0.00340187	         -0.01049726	         -0.00028735	          0.00000458	          0.00000000	         -0.00000094	         -8.81653498	        904.90322399	        -50.20717030	          0.34090303	          0.00000000	          0.14044614	          0.00000000	          0.00001335	          0.00000000	          0.00000000	          4.23970306	          0.00000000	
          2.26500000	         -0.00291312	         -0.00922125	         -0.00026739	          0.00000836	          0.00000000	          0.00000024	         -7.56522077	        903.31024244	        -50.56363091	          0.34256558	          0.00000000	          0.14087082	          0.00000000	          0.00000702	          0.00000000	          0.00000000	          4.17555098	          0.00000000	
          2.27000000	         -0.00236930	         -0.00767367	         -0.00023345	          0.00001012	          0.00000000	          0.00000098	         -6.21724827	        902.69507924	        -50.84936856	          0.34410728	          0.00000000	          0.14126671	          0.00000000	          0.00000240	          0.00000000	          0.00000000	          4.10889475	          0.00000000	
          2.27500000	         -0.00183317	         -0.00607435	         -0.00019322	          0.00001044	          0.00000000	          0.00000138	         -4.77855327	        903.07256512	        -51.05512839	          0.34553445	          0.00000000	          0.14163536	          0.00000000	         -0.00000075	          0.00000000	          0.00000000	          4.03737288	          0.00000000	
          2.28000000	         -0.00134439	         -0.00456833	         -0.00015214	          0.00000983	          0.00000000	          0.00000152	         -3.25488975	        904.41556768	        -51.18634425	          0.34686000	          0.00000000	          0.14197948	          0.00000000	         -0.00000271	          0.00000000	          0.00000000	          3.95916764	          0.00000000	
